<?xml version="1.0" standalone="no"?>
<!DOCTYPE svg PUBLIC "-//W3C//DTD SVG 20010904//EN"
 "http://www.w3.org/TR/2001/REC-SVG-20010904/DTD/svg10.dtd">
<svg version="1.0" xmlns="http://www.w3.org/2000/svg"
 width="512.000000pt" height="512.000000pt" viewBox="0 0 512.000000 512.000000"
 preserveAspectRatio="xMidYMid meet">

<g transform="translate(0.000000,512.000000) scale(0.100000,-0.100000)"
fill="#000000" stroke="none">
<path d="M2298 5090 c-783 -90 -1450 -497 -1881 -1150 -84 -127 -209 -377
-261 -520 -53 -147 -101 -343 -127 -511 -31 -204 -31 -524 0 -728 43 -285 116
-517 242 -771 374 -754 1082 -1269 1918 -1395 140 -21 602 -21 743 0 729 110
1366 518 1771 1135 80 122 210 382 262 524 50 137 100 338 126 507 31 204 31
524 0 728 -42 277 -110 497 -230 746 -216 447 -538 805 -958 1065 -304 188
-597 295 -977 357 -108 17 -516 26 -628 13z m608 -1603 c16 -18 79 -108 139
-200 l110 -167 193 0 c106 0 201 -4 211 -10 10 -5 93 -113 185 -240 l168 -230
299 0 300 0 24 -25 c37 -36 31 -69 -34 -201 -203 -411 -497 -687 -837 -786
l-79 -23 -1190 -3 c-1269 -3 -1255 -4 -1347 46 -64 34 -149 125 -186 198 -80
159 -142 448 -142 665 0 61 4 82 19 100 19 23 25 24 202 29 l184 5 16 90 c78
427 50 385 257 385 l149 0 21 178 c20 166 23 178 47 200 l26 22 619 0 618 0
28 -33z"/>
</g>
</svg>
